<svg width="24" height="24" viewBox="0 0 24 24" fill="none" xmlns="http://www.w3.org/2000/svg">
<path d="M3.63683 3.43396L12.3768 12.005L3.70183 20.655C3.55991 20.4701 3.44974 20.263 3.37583 20.042C3.33761 19.7917 3.33761 19.5372 3.37583 19.287V4.56696C3.34983 4.17196 3.44083 3.77696 3.63583 3.43396M16.1418 8.26696L13.2888 11.093L4.65283 2.59996C4.93283 2.50296 5.23283 2.47596 5.52583 2.52196C5.98583 2.64796 6.42483 2.84196 6.82783 3.09496L14.6438 7.41996C15.1518 7.69296 15.6468 7.97996 16.1418 8.26696ZM13.2898 12.93L16.1288 15.718L14.0708 16.864L7.79183 20.354C7.27183 20.641 6.74983 20.915 6.24183 21.228C6.02446 21.3633 5.78072 21.4507 5.52688 21.4843C5.27304 21.5179 5.01495 21.497 4.76983 21.423L13.2898 12.93ZM20.6498 12.005C20.6571 12.3546 20.5688 12.6997 20.3943 13.0028C20.2198 13.3059 19.9659 13.5556 19.6598 13.725L17.3138 15.027L14.2268 12.005L17.3268 8.93096C18.1218 9.37396 18.9038 9.81696 19.6848 10.234C19.9963 10.408 20.2521 10.6668 20.4227 10.9802C20.5933 11.2936 20.6727 11.6489 20.6498 12.005Z" fill="white"/>
</svg>
