<svg width="22" height="22" viewBox="0 0 22 22" fill="none" xmlns="http://www.w3.org/2000/svg">
<path d="M3.66933 3.66675C2.65716 3.66675 1.83649 4.48701 1.836 5.49919L1.83331 10.9992C1.83282 12.0121 2.65378 12.8334 3.66665 12.8334H4.58346L4.58645 17.4173C4.58664 17.7179 4.73415 17.9992 4.98123 18.1704C5.22831 18.3415 5.54357 18.3806 5.82498 18.2751L5.82585 18.2747L5.8268 18.2744L5.82897 18.2735L5.83432 18.2715L5.84903 18.2658C5.86057 18.2612 5.87559 18.2552 5.89384 18.2477C5.93034 18.2326 5.97986 18.2115 6.04055 18.1839C6.16177 18.1287 6.32845 18.0472 6.52544 17.9364C6.91784 17.7157 7.43971 17.3733 7.96339 16.8824C9.02145 15.8904 10.0864 14.2866 10.0864 11.9167V5.499C10.0864 4.48508 9.26423 3.66675 8.25311 3.66675H3.66933Z" fill="#0F83FF"/>
<path d="M13.7531 3.66675C12.7406 3.66675 11.9198 4.48756 11.9198 5.50008V11.0001C11.9198 12.0126 12.7406 12.8334 13.7531 12.8334H14.6698V17.4167C14.6698 17.7174 14.8172 17.9989 15.0643 18.1702C15.3114 18.3414 15.6268 18.3806 15.9083 18.2751L15.9092 18.2747L15.9101 18.2744L15.9123 18.2735L15.9177 18.2715L15.9324 18.2658C15.9439 18.2612 15.9589 18.2552 15.9772 18.2477C16.0137 18.2326 16.0632 18.2115 16.1239 18.1839C16.2451 18.1287 16.4118 18.0472 16.6088 17.9364C17.0012 17.7157 17.523 17.3733 18.0467 16.8824C19.1048 15.8904 20.1698 14.2866 20.1698 11.9167V5.499C20.1698 4.48508 19.3476 3.66675 18.3364 3.66675H13.7531Z" fill="#0F83FF"/>
</svg>
