<svg width="22" height="22" viewBox="0 0 22 22" fill="none" xmlns="http://www.w3.org/2000/svg">
<path d="M7.33334 4.58342C7.33334 4.28277 7.18591 4.00124 6.9388 3.82999C6.69169 3.65874 6.37631 3.61955 6.09481 3.72512L6.41667 4.58342C6.09481 3.72512 6.09394 3.72544 6.09394 3.72544L6.09298 3.7258L6.09081 3.72663L6.08546 3.72867L6.07076 3.73439C6.05921 3.73893 6.04419 3.74494 6.02594 3.75247C5.98945 3.76752 5.93992 3.78868 5.87924 3.81631C5.75801 3.87151 5.59133 3.95297 5.39435 4.06377C5.00194 4.2845 4.48007 4.62685 3.95639 5.1178C2.89833 6.10974 1.83334 7.71357 1.83334 10.0834V16.5012C1.83334 17.5151 2.65555 18.3334 3.66667 18.3334H8.25C9.26252 18.3334 10.0833 17.5126 10.0833 16.5001V11.0001C10.0833 9.98756 9.26252 9.16675 8.25 9.16675H7.33334V4.58342Z" fill="#0F83FF"/>
<path d="M17.4167 4.58282C17.4165 4.28228 17.269 4.00093 17.0219 3.82982C16.7748 3.65871 16.4595 3.61959 16.1781 3.72512L16.5 4.58342C16.1781 3.72512 16.1773 3.72544 16.1773 3.72544L16.1763 3.7258L16.1741 3.72663L16.1688 3.72867L16.1541 3.73439C16.1425 3.73893 16.1275 3.74494 16.1093 3.75247C16.0728 3.76752 16.0233 3.78868 15.9626 3.81631C15.8413 3.87151 15.6747 3.95297 15.4777 4.06377C15.0853 4.2845 14.5634 4.62685 14.0397 5.1178C12.9817 6.10974 11.9167 7.71357 11.9167 10.0834V16.5012C11.9167 17.5151 12.7389 18.3334 13.75 18.3334H18.3338C19.346 18.3334 20.1666 17.5132 20.1671 16.501L20.1698 11.001C20.1703 9.98811 19.3493 9.16675 18.3365 9.16675H17.4197L17.4167 4.58282Z" fill="#0F83FF"/>
</svg>
