<svg width="20" height="20" viewBox="0 0 20 20" fill="none" xmlns="http://www.w3.org/2000/svg">
<path fill-rule="evenodd" clip-rule="evenodd" d="M1.66669 10C1.66669 5.39762 5.39765 1.66666 10 1.66666C14.6024 1.66666 18.3334 5.39762 18.3334 10C18.3334 14.6024 14.6024 18.3333 10 18.3333C5.39765 18.3333 1.66669 14.6024 1.66669 10ZM7.29169 14.1667C6.94651 14.1667 6.66669 13.8868 6.66669 13.5417C6.66669 13.1965 6.94651 12.9167 7.29169 12.9167H12.7084C13.0535 12.9167 13.3334 13.1965 13.3334 13.5417C13.3334 13.8868 13.0535 14.1667 12.7084 14.1667H7.29169ZM12.317 9.81694L10.442 11.6919C10.1979 11.936 9.80216 11.936 9.55808 11.6919L7.68308 9.81694C7.439 9.57286 7.439 9.17713 7.68308 8.93306C7.92716 8.68898 8.32288 8.68898 8.56696 8.93306L9.37502 9.74111V6.45833C9.37502 6.11315 9.65484 5.83333 10 5.83333C10.3452 5.83333 10.625 6.11315 10.625 6.45833V9.74111L11.4331 8.93306C11.6772 8.68898 12.0729 8.68898 12.317 8.93306C12.561 9.17713 12.561 9.57286 12.317 9.81694Z" fill="white"/>
</svg>
