<svg width="1440" height="993" viewBox="0 0 1440 993" fill="none" xmlns="http://www.w3.org/2000/svg">
<g clip-path="url(#clip0_12_7914)">
<line x1="0.345092" y1="1.50804e-08" x2="0.345047" y2="1024" stroke="#E6E6E6" stroke-width="0.69"/>
<line x1="80.3451" y1="1.50804e-08" x2="80.345" y2="1024" stroke="#E6E6E6" stroke-width="0.69"/>
<line x1="160.345" y1="1.50804e-08" x2="160.345" y2="1024" stroke="#E6E6E6" stroke-width="0.69"/>
<line x1="240.345" y1="1.50804e-08" x2="240.345" y2="1024" stroke="#E6E6E6" stroke-width="0.69"/>
<line x1="320.345" y1="1.50804e-08" x2="320.345" y2="1024" stroke="#E6E6E6" stroke-width="0.69"/>
<line x1="400.345" y1="1.50804e-08" x2="400.345" y2="1024" stroke="#E6E6E6" stroke-width="0.69"/>
<line x1="480.345" y1="1.50804e-08" x2="480.345" y2="1024" stroke="#E6E6E6" stroke-width="0.69"/>
<line x1="560.345" y1="1.50804e-08" x2="560.345" y2="1024" stroke="#E6E6E6" stroke-width="0.69"/>
<line x1="640.346" y1="1.50804e-08" x2="640.346" y2="1024" stroke="#E6E6E6" stroke-width="0.69"/>
<line x1="720.346" y1="1.50804e-08" x2="720.346" y2="1024" stroke="#E6E6E6" stroke-width="0.69"/>
<line x1="800.346" y1="1.50804e-08" x2="800.346" y2="1024" stroke="#E6E6E6" stroke-width="0.69"/>
<line x1="880.346" y1="1.50804e-08" x2="880.346" y2="1024" stroke="#E6E6E6" stroke-width="0.69"/>
<line x1="960.346" y1="1.50804e-08" x2="960.346" y2="1024" stroke="#E6E6E6" stroke-width="0.69"/>
<line x1="1040.35" y1="1.50804e-08" x2="1040.35" y2="1024" stroke="#E6E6E6" stroke-width="0.69"/>
<line x1="1120.35" y1="1.50804e-08" x2="1120.35" y2="1024" stroke="#E6E6E6" stroke-width="0.69"/>
<line x1="1200.35" y1="1.50804e-08" x2="1200.35" y2="1024" stroke="#E6E6E6" stroke-width="0.69"/>
<line x1="1280.35" y1="1.50804e-08" x2="1280.35" y2="1024" stroke="#E6E6E6" stroke-width="0.69"/>
<line x1="1360.35" y1="1.50804e-08" x2="1360.35" y2="1024" stroke="#E6E6E6" stroke-width="0.69"/>
<line x1="-80" y1="959.656" x2="1520" y2="959.656" stroke="#E6E6E6" stroke-width="0.69"/>
<line x1="-80" y1="879.655" x2="1520" y2="879.656" stroke="#E6E6E6" stroke-width="0.69"/>
<line x1="-80" y1="799.655" x2="1520" y2="799.656" stroke="#E6E6E6" stroke-width="0.69"/>
<line x1="-80" y1="719.655" x2="1520" y2="719.655" stroke="#E6E6E6" stroke-width="0.69"/>
<line x1="-80" y1="639.655" x2="1520" y2="639.655" stroke="#E6E6E6" stroke-width="0.69"/>
<line x1="-80" y1="559.655" x2="1520" y2="559.655" stroke="#E6E6E6" stroke-width="0.69"/>
<line x1="-80" y1="479.655" x2="1520" y2="479.655" stroke="#E6E6E6" stroke-width="0.69"/>
<line x1="-80" y1="399.655" x2="1520" y2="399.655" stroke="#E6E6E6" stroke-width="0.69"/>
<line x1="-80" y1="319.655" x2="1520" y2="319.655" stroke="#E6E6E6" stroke-width="0.69"/>
<line x1="-80" y1="239.655" x2="1520" y2="239.655" stroke="#E6E6E6" stroke-width="0.69"/>
<line x1="-80" y1="159.655" x2="1520" y2="159.655" stroke="#E6E6E6" stroke-width="0.69"/>
<line x1="-80" y1="79.6544" x2="1520" y2="79.6545" stroke="#E6E6E6" stroke-width="0.69"/>
<circle cx="80.35" cy="79.65" r="3" fill="#E6E6E6"/>
<circle cx="160.35" cy="79.65" r="3" fill="#E6E6E6"/>
<circle cx="240.35" cy="79.65" r="3" fill="#E6E6E6"/>
<circle cx="320.35" cy="79.65" r="3" fill="#E6E6E6"/>
<circle cx="400.35" cy="79.65" r="3" fill="#E6E6E6"/>
<circle cx="480.35" cy="79.65" r="3" fill="#E6E6E6"/>
<circle cx="560.35" cy="79.65" r="3" fill="#E6E6E6"/>
<circle cx="640.35" cy="79.65" r="3" fill="#E6E6E6"/>
<circle cx="720.35" cy="79.65" r="3" fill="#E6E6E6"/>
<circle cx="800.35" cy="79.65" r="3" fill="#E6E6E6"/>
<circle cx="880.35" cy="79.65" r="3" fill="#E6E6E6"/>
<circle cx="960.35" cy="79.65" r="3" fill="#E6E6E6"/>
<circle cx="1040.35" cy="79.65" r="3" fill="#E6E6E6"/>
<circle cx="1120.35" cy="79.65" r="3" fill="#E6E6E6"/>
<circle cx="1200.35" cy="79.65" r="3" fill="#E6E6E6"/>
<circle cx="1280.35" cy="79.65" r="3" fill="#E6E6E6"/>
<circle cx="1360.35" cy="79.65" r="3" fill="#E6E6E6"/>
<circle cx="80.35" cy="159.65" r="3" fill="#E6E6E6"/>
<circle cx="160.35" cy="159.65" r="3" fill="#E6E6E6"/>
<circle cx="240.35" cy="159.65" r="3" fill="#E6E6E6"/>
<circle cx="320.35" cy="159.65" r="3" fill="#E6E6E6"/>
<circle cx="400.35" cy="159.65" r="3" fill="#E6E6E6"/>
<circle cx="480.35" cy="159.65" r="3" fill="#E6E6E6"/>
<circle cx="560.35" cy="159.65" r="3" fill="#E6E6E6"/>
<circle cx="640.35" cy="159.65" r="3" fill="#E6E6E6"/>
<circle cx="720.35" cy="159.65" r="3" fill="#E6E6E6"/>
<circle cx="800.35" cy="159.65" r="3" fill="#E6E6E6"/>
<circle cx="880.35" cy="159.65" r="3" fill="#E6E6E6"/>
<circle cx="960.35" cy="159.65" r="3" fill="#E6E6E6"/>
<circle cx="1040.35" cy="159.65" r="3" fill="#E6E6E6"/>
<circle cx="1120.35" cy="159.65" r="3" fill="#E6E6E6"/>
<circle cx="1200.35" cy="159.65" r="3" fill="#E6E6E6"/>
<circle cx="1280.35" cy="159.65" r="3" fill="#E6E6E6"/>
<circle cx="1360.35" cy="159.65" r="3" fill="#E6E6E6"/>
<circle cx="80.35" cy="239.65" r="3" fill="#E6E6E6"/>
<circle cx="160.35" cy="239.65" r="3" fill="#E6E6E6"/>
<circle cx="240.35" cy="239.65" r="3" fill="#E6E6E6"/>
<circle cx="320.35" cy="239.65" r="3" fill="#E6E6E6"/>
<circle cx="400.35" cy="239.65" r="3" fill="#E6E6E6"/>
<circle cx="480.35" cy="239.65" r="3" fill="#E6E6E6"/>
<circle cx="560.35" cy="239.65" r="3" fill="#E6E6E6"/>
<circle cx="640.35" cy="239.65" r="3" fill="#E6E6E6"/>
<circle cx="720.35" cy="239.65" r="3" fill="#E6E6E6"/>
<circle cx="800.35" cy="239.65" r="3" fill="#E6E6E6"/>
<circle cx="880.35" cy="239.65" r="3" fill="#E6E6E6"/>
<circle cx="960.35" cy="239.65" r="3" fill="#E6E6E6"/>
<circle cx="1040.35" cy="239.65" r="3" fill="#E6E6E6"/>
<circle cx="1120.35" cy="239.65" r="3" fill="#E6E6E6"/>
<circle cx="1200.35" cy="239.65" r="3" fill="#E6E6E6"/>
<circle cx="1280.35" cy="239.65" r="3" fill="#E6E6E6"/>
<circle cx="1360.35" cy="239.65" r="3" fill="#E6E6E6"/>
<circle cx="80.35" cy="319.65" r="3" fill="#E6E6E6"/>
<circle cx="160.35" cy="319.65" r="3" fill="#E6E6E6"/>
<circle cx="240.35" cy="319.65" r="3" fill="#E6E6E6"/>
<circle cx="320.35" cy="319.65" r="3" fill="#E6E6E6"/>
<circle cx="400.35" cy="319.65" r="3" fill="#E6E6E6"/>
<circle cx="480.35" cy="319.65" r="3" fill="#E6E6E6"/>
<circle cx="560.35" cy="319.65" r="3" fill="#E6E6E6"/>
<circle cx="640.35" cy="319.65" r="3" fill="#E6E6E6"/>
<circle cx="720.35" cy="319.65" r="3" fill="#E6E6E6"/>
<circle cx="800.35" cy="319.65" r="3" fill="#E6E6E6"/>
<circle cx="880.35" cy="319.65" r="3" fill="#E6E6E6"/>
<circle cx="960.35" cy="319.65" r="3" fill="#E6E6E6"/>
<circle cx="1040.35" cy="319.65" r="3" fill="#E6E6E6"/>
<circle cx="1120.35" cy="319.65" r="3" fill="#E6E6E6"/>
<circle cx="1200.35" cy="319.65" r="3" fill="#E6E6E6"/>
<circle cx="1280.35" cy="319.65" r="3" fill="#E6E6E6"/>
<circle cx="1360.35" cy="319.65" r="3" fill="#E6E6E6"/>
<circle cx="80.35" cy="399.65" r="3" fill="#E6E6E6"/>
<circle cx="160.35" cy="399.65" r="3" fill="#E6E6E6"/>
<circle cx="240.35" cy="399.65" r="3" fill="#E6E6E6"/>
<circle cx="320.35" cy="399.65" r="3" fill="#E6E6E6"/>
<circle cx="400.35" cy="399.65" r="3" fill="#E6E6E6"/>
<circle cx="480.35" cy="399.65" r="3" fill="#E6E6E6"/>
<circle cx="560.35" cy="399.65" r="3" fill="#E6E6E6"/>
<circle cx="640.35" cy="399.65" r="3" fill="#E6E6E6"/>
<circle cx="720.35" cy="399.65" r="3" fill="#E6E6E6"/>
<circle cx="800.35" cy="399.65" r="3" fill="#E6E6E6"/>
<circle cx="880.35" cy="399.65" r="3" fill="#E6E6E6"/>
<circle cx="960.35" cy="399.65" r="3" fill="#E6E6E6"/>
<circle cx="1040.35" cy="399.65" r="3" fill="#E6E6E6"/>
<circle cx="1120.35" cy="399.65" r="3" fill="#E6E6E6"/>
<circle cx="1200.35" cy="399.65" r="3" fill="#E6E6E6"/>
<circle cx="1280.35" cy="399.65" r="3" fill="#E6E6E6"/>
<circle cx="1360.35" cy="399.65" r="3" fill="#E6E6E6"/>
<circle cx="80.35" cy="479.65" r="3" fill="#E6E6E6"/>
<circle cx="160.35" cy="479.65" r="3" fill="#E6E6E6"/>
<circle cx="240.35" cy="479.65" r="3" fill="#E6E6E6"/>
<circle cx="320.35" cy="479.65" r="3" fill="#E6E6E6"/>
<circle cx="400.35" cy="479.65" r="3" fill="#E6E6E6"/>
<circle cx="480.35" cy="479.65" r="3" fill="#E6E6E6"/>
<circle cx="560.35" cy="479.65" r="3" fill="#E6E6E6"/>
<circle cx="640.35" cy="479.65" r="3" fill="#E6E6E6"/>
<circle cx="720.35" cy="479.65" r="3" fill="#E6E6E6"/>
<circle cx="800.35" cy="479.65" r="3" fill="#E6E6E6"/>
<circle cx="880.35" cy="479.65" r="3" fill="#E6E6E6"/>
<circle cx="960.35" cy="479.65" r="3" fill="#E6E6E6"/>
<circle cx="1040.35" cy="479.65" r="3" fill="#E6E6E6"/>
<circle cx="1120.35" cy="479.65" r="3" fill="#E6E6E6"/>
<circle cx="1200.35" cy="479.65" r="3" fill="#E6E6E6"/>
<circle cx="1280.35" cy="479.65" r="3" fill="#E6E6E6"/>
<circle cx="1360.35" cy="479.65" r="3" fill="#E6E6E6"/>
<circle cx="80.35" cy="559.65" r="3" fill="#E6E6E6"/>
<circle cx="160.35" cy="559.65" r="3" fill="#E6E6E6"/>
<circle cx="240.35" cy="559.65" r="3" fill="#E6E6E6"/>
<circle cx="320.35" cy="559.65" r="3" fill="#E6E6E6"/>
<circle cx="400.35" cy="559.65" r="3" fill="#E6E6E6"/>
<circle cx="480.35" cy="559.65" r="3" fill="#E6E6E6"/>
<circle cx="560.35" cy="559.65" r="3" fill="#E6E6E6"/>
<circle cx="640.35" cy="559.65" r="3" fill="#E6E6E6"/>
<circle cx="720.35" cy="559.65" r="3" fill="#E6E6E6"/>
<circle cx="800.35" cy="559.65" r="3" fill="#E6E6E6"/>
<circle cx="880.35" cy="559.65" r="3" fill="#E6E6E6"/>
<circle cx="960.35" cy="559.65" r="3" fill="#E6E6E6"/>
<circle cx="1040.35" cy="559.65" r="3" fill="#E6E6E6"/>
<circle cx="1120.35" cy="559.65" r="3" fill="#E6E6E6"/>
<circle cx="1200.35" cy="559.65" r="3" fill="#E6E6E6"/>
<circle cx="1280.35" cy="559.65" r="3" fill="#E6E6E6"/>
<circle cx="1360.35" cy="559.65" r="3" fill="#E6E6E6"/>
<circle cx="80.35" cy="639.65" r="3" fill="#E6E6E6"/>
<circle cx="160.35" cy="639.65" r="3" fill="#E6E6E6"/>
<circle cx="240.35" cy="639.65" r="3" fill="#E6E6E6"/>
<circle cx="320.35" cy="639.65" r="3" fill="#E6E6E6"/>
<circle cx="400.35" cy="639.65" r="3" fill="#E6E6E6"/>
<circle cx="480.35" cy="639.65" r="3" fill="#E6E6E6"/>
<circle cx="560.35" cy="639.65" r="3" fill="#E6E6E6"/>
<circle cx="640.35" cy="639.65" r="3" fill="#E6E6E6"/>
<circle cx="720.35" cy="639.65" r="3" fill="#E6E6E6"/>
<circle cx="800.35" cy="639.65" r="3" fill="#E6E6E6"/>
<circle cx="880.35" cy="639.65" r="3" fill="#E6E6E6"/>
<circle cx="960.35" cy="639.65" r="3" fill="#E6E6E6"/>
<circle cx="1040.35" cy="639.65" r="3" fill="#E6E6E6"/>
<circle cx="1120.35" cy="639.65" r="3" fill="#E6E6E6"/>
<circle cx="1200.35" cy="639.65" r="3" fill="#E6E6E6"/>
<circle cx="1280.35" cy="639.65" r="3" fill="#E6E6E6"/>
<circle cx="1360.35" cy="639.65" r="3" fill="#E6E6E6"/>
<circle cx="80.35" cy="719.65" r="3" fill="#E6E6E6"/>
<circle cx="160.35" cy="719.65" r="3" fill="#E6E6E6"/>
<circle cx="240.35" cy="719.65" r="3" fill="#E6E6E6"/>
<circle cx="320.35" cy="719.65" r="3" fill="#E6E6E6"/>
<circle cx="400.35" cy="719.65" r="3" fill="#E6E6E6"/>
<circle cx="480.35" cy="719.65" r="3" fill="#E6E6E6"/>
<circle cx="560.35" cy="719.65" r="3" fill="#E6E6E6"/>
<circle cx="640.35" cy="719.65" r="3" fill="#E6E6E6"/>
<circle cx="720.35" cy="719.65" r="3" fill="#E6E6E6"/>
<circle cx="800.35" cy="719.65" r="3" fill="#E6E6E6"/>
<circle cx="880.35" cy="719.65" r="3" fill="#E6E6E6"/>
<circle cx="960.35" cy="719.65" r="3" fill="#E6E6E6"/>
<circle cx="1040.35" cy="719.65" r="3" fill="#E6E6E6"/>
<circle cx="1120.35" cy="719.65" r="3" fill="#E6E6E6"/>
<circle cx="1200.35" cy="719.65" r="3" fill="#E6E6E6"/>
<circle cx="1280.35" cy="719.65" r="3" fill="#E6E6E6"/>
<circle cx="1360.35" cy="719.65" r="3" fill="#E6E6E6"/>
<circle cx="80.35" cy="799.65" r="3" fill="#E6E6E6"/>
<circle cx="160.35" cy="799.65" r="3" fill="#E6E6E6"/>
<circle cx="240.35" cy="799.65" r="3" fill="#E6E6E6"/>
<circle cx="320.35" cy="799.65" r="3" fill="#E6E6E6"/>
<circle cx="400.35" cy="799.65" r="3" fill="#E6E6E6"/>
<circle cx="480.35" cy="799.65" r="3" fill="#E6E6E6"/>
<circle cx="560.35" cy="799.65" r="3" fill="#E6E6E6"/>
<circle cx="640.35" cy="799.65" r="3" fill="#E6E6E6"/>
<circle cx="720.35" cy="799.65" r="3" fill="#E6E6E6"/>
<circle cx="800.35" cy="799.65" r="3" fill="#E6E6E6"/>
<circle cx="880.35" cy="799.65" r="3" fill="#E6E6E6"/>
<circle cx="960.35" cy="799.65" r="3" fill="#E6E6E6"/>
<circle cx="1040.35" cy="799.65" r="3" fill="#E6E6E6"/>
<circle cx="1120.35" cy="799.65" r="3" fill="#E6E6E6"/>
<circle cx="1200.35" cy="799.65" r="3" fill="#E6E6E6"/>
<circle cx="1280.35" cy="799.65" r="3" fill="#E6E6E6"/>
<circle cx="1360.35" cy="799.65" r="3" fill="#E6E6E6"/>
<circle cx="80.35" cy="879.65" r="3" fill="#E6E6E6"/>
<circle cx="160.35" cy="879.65" r="3" fill="#E6E6E6"/>
<circle cx="240.35" cy="879.65" r="3" fill="#E6E6E6"/>
<circle cx="320.35" cy="879.65" r="3" fill="#E6E6E6"/>
<circle cx="400.35" cy="879.65" r="3" fill="#E6E6E6"/>
<circle cx="480.35" cy="879.65" r="3" fill="#E6E6E6"/>
<circle cx="560.35" cy="879.65" r="3" fill="#E6E6E6"/>
<circle cx="640.35" cy="879.65" r="3" fill="#E6E6E6"/>
<circle cx="720.35" cy="879.65" r="3" fill="#E6E6E6"/>
<circle cx="800.35" cy="879.65" r="3" fill="#E6E6E6"/>
<circle cx="880.35" cy="879.65" r="3" fill="#E6E6E6"/>
<circle cx="960.35" cy="879.65" r="3" fill="#E6E6E6"/>
<circle cx="1040.35" cy="879.65" r="3" fill="#E6E6E6"/>
<circle cx="1120.35" cy="879.65" r="3" fill="#E6E6E6"/>
<circle cx="1200.35" cy="879.65" r="3" fill="#E6E6E6"/>
<circle cx="1280.35" cy="879.65" r="3" fill="#E6E6E6"/>
<circle cx="1360.35" cy="879.65" r="3" fill="#E6E6E6"/>
<circle cx="80.35" cy="959.65" r="3" fill="#E6E6E6"/>
<circle cx="160.35" cy="959.65" r="3" fill="#E6E6E6"/>
<circle cx="240.35" cy="959.65" r="3" fill="#E6E6E6"/>
<circle cx="320.35" cy="959.65" r="3" fill="#E6E6E6"/>
<circle cx="400.35" cy="959.65" r="3" fill="#E6E6E6"/>
<circle cx="480.35" cy="959.65" r="3" fill="#E6E6E6"/>
<circle cx="560.35" cy="959.65" r="3" fill="#E6E6E6"/>
<circle cx="640.35" cy="959.65" r="3" fill="#E6E6E6"/>
<circle cx="720.35" cy="959.65" r="3" fill="#E6E6E6"/>
<circle cx="800.35" cy="959.65" r="3" fill="#E6E6E6"/>
<circle cx="880.35" cy="959.65" r="3" fill="#E6E6E6"/>
<circle cx="960.35" cy="959.65" r="3" fill="#E6E6E6"/>
<circle cx="1040.35" cy="959.65" r="3" fill="#E6E6E6"/>
<circle cx="1120.35" cy="959.65" r="3" fill="#E6E6E6"/>
<circle cx="1200.35" cy="959.65" r="3" fill="#E6E6E6"/>
<circle cx="1280.35" cy="959.65" r="3" fill="#E6E6E6"/>
<circle cx="1360.35" cy="959.65" r="3" fill="#E6E6E6"/>
</g>
<defs>
<clipPath id="clip0_12_7914">
<rect width="1440" height="1024" fill="white"/>
</clipPath>
</defs>
</svg>
