<svg width="75" height="60" viewBox="0 0 75 60" fill="none" xmlns="http://www.w3.org/2000/svg">
<path d="M38.5656 60V42.7083L32.5499 39.0625L25.5967 42.7083V60H38.5656Z" fill="#7D4533"/>
<path d="M51.1734 0H15.2095L23.4387 43.2552H62.4756C63.5116 43.2552 64.5052 42.8437 65.2378 42.1111C65.9704 41.3785 66.3819 40.385 66.3819 39.349V15.2083C66.3559 6.79687 59.5589 0 51.1734 0Z" fill="#5092FF"/>
<path d="M15.2085 0C6.79695 0 0 6.79687 0 15.2083V39.349C0 40.385 0.411555 41.3785 1.14413 42.1111C1.8767 42.8437 2.87028 43.2552 3.90629 43.2552H26.4847C27.5207 43.2552 28.5143 42.8437 29.2468 42.1111C29.9794 41.3785 30.391 40.385 30.391 39.349V15.2083C30.391 6.79687 23.594 0 15.2085 0Z" fill="#3F5FFF"/>
<path d="M18.9302 33.8542H7.75817C6.3519 33.8542 5.20605 35 5.20605 36.4063C5.20605 37.8125 6.3519 38.9583 7.75817 38.9583H18.9302C20.3364 38.9583 21.4823 37.8125 21.4823 36.4063C21.4861 36.07 21.4227 35.7365 21.2958 35.4251C21.1689 35.1137 20.9811 34.8309 20.7433 34.5931C20.5056 34.3554 20.2227 34.1675 19.9113 34.0406C19.6 33.9137 19.2664 33.8503 18.9302 33.8542Z" fill="#1345B7"/>
<path d="M72.9168 31.5912V17.8855C72.9168 16.6485 71.9558 15.6251 70.7918 15.6251H64.6224C63.4609 15.6251 62.5 16.6485 62.5 17.8855V31.5912C62.5 32.8308 63.4609 33.8542 64.625 33.8542H70.7944C71.9558 33.8542 72.9168 32.8308 72.9168 31.5912Z" fill="#F92F60"/>
<path d="M48.2186 19.8698C47.525 21.0715 46.4543 22.0108 45.1725 22.5419C43.8906 23.073 42.4693 23.1662 41.1291 22.8071C39.7889 22.448 38.6046 21.6567 37.7601 20.5559C36.9155 19.455 36.4578 18.1063 36.458 16.7188C36.4578 15.3313 36.9155 13.9825 37.7601 12.8817C38.6046 11.7809 39.7889 10.9895 41.1291 10.6304C42.4693 10.2713 43.8906 10.3646 45.1725 10.8957C46.4543 11.4268 47.525 12.366 48.2186 13.5677H71.4063C73.1511 13.5677 74.5574 14.974 74.5574 16.7188C74.5574 18.4636 73.1511 19.8698 71.4063 19.8698H48.2186Z" fill="#D3D3D3"/>
</svg>
