<svg width="30" height="30" viewBox="0 0 30 30" fill="none" xmlns="http://www.w3.org/2000/svg">
<path d="M14.338 3.75169C13.9536 3.42434 13.41 3.3604 12.9601 3.58963C12.5102 3.81885 12.2424 4.29623 12.2813 4.79964L12.6866 10.0471L8.20305 12.8036C7.77293 13.0681 7.54413 13.5653 7.62312 14.064C7.7021 14.5627 8.07336 14.9649 8.56415 15.0835L12.2563 15.9756L4.11612 24.1158C3.62796 24.604 3.62796 25.3954 4.11612 25.8836C4.60427 26.3717 5.39573 26.3717 5.88388 25.8836L14.0241 17.7434L14.9162 21.4355C15.0347 21.9263 15.437 22.2976 15.9357 22.3766C16.4344 22.4556 16.9316 22.2268 17.196 21.7966L19.9526 17.3131L25.2001 17.7184C25.7035 17.7573 26.1808 17.4895 26.4101 17.0396C26.6393 16.5897 26.5754 16.0461 26.248 15.6617L22.8357 11.6546L24.8427 6.78918C25.0353 6.32242 24.9281 5.78565 24.5711 5.42862C24.214 5.0716 23.6773 4.96442 23.2105 5.15696L18.3451 7.16398L14.338 3.75169Z" fill="black"/>
</svg>
