<svg width="30" height="30" viewBox="0 0 30 30" fill="none" xmlns="http://www.w3.org/2000/svg">
<path d="M15.8127 2.70781C15.286 2.52676 14.714 2.52676 14.1873 2.7078L5.4373 5.71562C4.4278 6.06263 3.75 7.01235 3.75 8.07983V14.8907C3.75 18.3991 5.18613 20.9275 7.26562 22.8962C9.23117 24.757 11.8061 26.1455 14.2102 27.4419L14.4065 27.5477C14.7769 27.7476 15.2231 27.7476 15.5935 27.5477L15.7898 27.4419C18.1939 26.1455 20.7688 24.757 22.7344 22.8962C24.8139 20.9275 26.25 18.3991 26.25 14.8907V8.07983C26.25 7.01235 25.5722 6.06264 24.5627 5.71562L15.8127 2.70781Z" fill="black"/>
</svg>
