<svg width="30" height="30" viewBox="0 0 30 30" fill="none" xmlns="http://www.w3.org/2000/svg">
<path d="M16.1973 3.39082C16.0387 2.86209 15.552 2.5 15 2.5C14.448 2.5 13.9613 2.86209 13.8027 3.39082C12.9035 6.38807 11.738 8.52553 10.1317 10.1317C8.52553 11.738 6.38807 12.9035 3.39082 13.8027C2.86209 13.9613 2.5 14.448 2.5 15C2.5 15.552 2.86209 16.0387 3.39082 16.1973C6.38807 17.0965 8.52553 18.262 10.1317 19.8683C11.738 21.4745 12.9035 23.6119 13.8027 26.6092C13.9613 27.1379 14.448 27.5 15 27.5C15.552 27.5 16.0387 27.1379 16.1973 26.6092C17.0965 23.6119 18.262 21.4745 19.8683 19.8683C21.4745 18.262 23.6119 17.0965 26.6092 16.1973C27.1379 16.0387 27.5 15.552 27.5 15C27.5 14.448 27.1379 13.9613 26.6092 13.8027C23.6119 12.9035 21.4745 11.738 19.8683 10.1317C18.262 8.52553 17.0965 6.38807 16.1973 3.39082Z" fill="black"/>
</svg>
