<svg width="20" height="20" viewBox="0 0 20 20" fill="none" xmlns="http://www.w3.org/2000/svg">
<path d="M1.07754 3.78576C0.752106 4.1112 0.752106 4.63884 1.07754 4.96428C1.40298 5.28971 1.93062 5.28971 2.25605 4.96428L4.75605 2.46428C5.08149 2.13884 5.08149 1.6112 4.75605 1.28576C4.43062 0.960328 3.90298 0.960328 3.57754 1.28576L1.07754 3.78576Z" fill="#FF3B30"/>
<path d="M16.4227 1.28576C16.0973 0.960328 15.5696 0.960328 15.2442 1.28576C14.9188 1.6112 14.9188 2.13884 15.2442 2.46428L17.7442 4.96428C18.0696 5.28971 18.5973 5.28971 18.9227 4.96428C19.2482 4.63884 19.2482 4.1112 18.9227 3.78576L16.4227 1.28576Z" fill="#FF3B30"/>
<path fill-rule="evenodd" clip-rule="evenodd" d="M18.3333 10C18.3333 14.6024 14.6024 18.3334 10 18.3334C5.39763 18.3334 1.66667 14.6024 1.66667 10C1.66667 5.39765 5.39763 1.66669 10 1.66669C14.6024 1.66669 18.3333 5.39765 18.3333 10ZM10 5.83335C10.4602 5.83335 10.8333 6.20645 10.8333 6.66669V9.65484L12.6726 11.4941C12.998 11.8195 12.998 12.3472 12.6726 12.6726C12.3472 12.998 11.8195 12.998 11.4941 12.6726L9.41075 10.5893C9.25447 10.433 9.16667 10.221 9.16667 10V6.66669C9.16667 6.20645 9.53977 5.83335 10 5.83335Z" fill="#FF3B30"/>
</svg>
