<svg width="20" height="20" viewBox="0 0 20 20" fill="none" xmlns="http://www.w3.org/2000/svg">
<path d="M12.1547 1.66662C12.8056 1.01575 13.8608 1.01575 14.5117 1.66662L18.3332 5.48811C18.9841 6.13899 18.9841 7.19426 18.3332 7.84513L7.84505 18.3333C7.19418 18.9842 6.1389 18.9842 5.48803 18.3333L1.66654 14.5118C1.01567 13.8609 1.01567 12.8057 1.66654 12.1548L3.40475 10.4166L5.03575 12.0476C5.36118 12.373 5.88882 12.373 6.21426 12.0476C6.53969 11.7221 6.53969 11.1945 6.21426 10.8691L4.58326 9.23806L6.32142 7.49991L8.78575 9.96424C9.11118 10.2897 9.63882 10.2897 9.96426 9.96424C10.2897 9.6388 10.2897 9.11116 9.96426 8.78572L7.49993 6.32139L9.23808 4.58324L10.8691 6.21424C11.1945 6.53967 11.7222 6.53967 12.0476 6.21424C12.373 5.8888 12.373 5.36116 12.0476 5.03572L10.4166 3.40473L12.1547 1.66662Z" fill="#00B839"/>
</svg>
