<svg width="30" height="30" viewBox="0 0 30 30" fill="none" xmlns="http://www.w3.org/2000/svg">
<path d="M21.25 21.875C20.5596 21.875 20 22.4346 20 23.125C20 23.8154 20.5596 24.375 21.25 24.375H22.5C23.1904 24.375 23.75 23.8154 23.75 23.125C23.75 22.4346 23.1904 21.875 22.5 21.875H21.25Z" fill="black"/>
<path fill-rule="evenodd" clip-rule="evenodd" d="M6.25 3.75C4.86929 3.75 3.75 4.86929 3.75 6.25V18.75H2.5C1.80964 18.75 1.25 19.3096 1.25 20V23.75C1.25 25.1307 2.36929 26.25 3.75 26.25H15.3345C15.7667 26.9973 16.5746 27.5 17.5 27.5H26.25C27.6307 27.5 28.75 26.3807 28.75 25V12.5C28.75 11.1193 27.6307 10 26.25 10V6.25C26.25 4.86929 25.1307 3.75 23.75 3.75H6.25ZM15 21.25H3.75V23.75H15V21.25ZM17.5 25H26.25V12.5H17.5V25Z" fill="black"/>
</svg>
